<?xml version="1.0" standalone="no"?>
<!DOCTYPE svg PUBLIC "-//W3C//DTD SVG 20010904//EN"
 "http://www.w3.org/TR/2001/REC-SVG-20010904/DTD/svg10.dtd">
<svg version="1.0" xmlns="http://www.w3.org/2000/svg"
 width="200.000000pt" height="200.000000pt" viewBox="0 0 200.000000 200.000000"
 preserveAspectRatio="xMidYMid meet">

<g transform="translate(0.000000,200.000000) scale(0.100000,-0.100000)"
fill="#000000" stroke="none">
<path d="M819 1448 c-185 -65 -297 -235 -287 -436 5 -114 43 -198 125 -281
149 -148 389 -171 549 -52 l39 29 92 -91 93 -92 22 23 23 22 -92 93 -91 92 29
39 c37 50 66 129 74 203 20 174 -86 358 -252 435 -59 28 -81 33 -163 35 -79 3
-106 0 -161 -19z m293 -71 c196 -89 279 -319 183 -506 -92 -181 -309 -255
-493 -169 -71 33 -154 121 -182 193 -33 83 -34 208 -2 280 51 112 118 176 227
214 82 29 188 25 267 -12z"/>
<path d="M812 1187 l-22 -23 65 -64 65 -64 -65 -66 -66 -66 21 -19 c20 -19 21
-18 85 45 l65 64 64 -63 c44 -44 69 -62 80 -58 37 15 29 38 -35 103 l-63 64
64 65 c64 65 64 65 44 85 -20 20 -20 20 -84 -45 l-64 -65 -66 65 -66 66 -22
-24z"/>
</g>
</svg>
