<svg id="Layer_1" data-name="Layer 1" xmlns="http://www.w3.org/2000/svg" viewBox="0 0 500 500"><defs><style>.cls-1{fill:#2e7b52;}.cls-2{fill:#286c46;}.cls-3,.cls-7{fill:none;}.cls-4{fill:#88be40;}.cls-5{fill:#78a240;}.cls-6{fill:#fff;}.cls-7{stroke:#000;stroke-linecap:round;stroke-linejoin:round;stroke-width:20px;}</style></defs><title>reliability</title><path class="cls-1" d="M250,489.3C494.9,383.2,450.82,94.45,450.82,94.45,333.87,84.47,250,10.7,250,10.7S166.13,84.47,49.18,94.45C49.18,94.45,5.1,383.2,250,489.3Z"/><path class="cls-2" d="M450.82,94.45a325.26,325.26,0,0,1-45.69-7.29c2.08,90.4-12.48,299.32-180.23,390.07,8,4.24,16.36,8.28,25.1,12.07C494.9,383.2,450.82,94.45,450.82,94.45Z"/><path class="cls-3" d="M250,489.3C494.9,383.2,450.82,94.45,450.82,94.45,333.87,84.47,250,10.7,250,10.7S166.13,84.47,49.18,94.45C49.18,94.45,5.1,383.2,250,489.3Z"/><path class="cls-4" d="M250,428.93C433.12,349.6,400.16,133.69,400.16,133.69,312.72,126.23,250,71.07,250,71.07s-62.72,55.16-150.16,62.62C99.84,133.69,66.88,349.6,250,428.93Z"/><path class="cls-5" d="M400.16,133.69a248.46,248.46,0,0,1-46.27-8.53c2.93,51.2,1.51,216.42-128.95,291.34A265.75,265.75,0,0,0,250,428.93C433.12,349.6,400.16,133.69,400.16,133.69Z"/><path class="cls-3" d="M250,428.93C433.12,349.6,400.16,133.69,400.16,133.69,312.72,126.23,250,71.07,250,71.07s-62.72,55.16-150.16,62.62C99.84,133.69,66.88,349.6,250,428.93Z"/><path class="cls-6" d="M234.1,307.3a22.91,22.91,0,0,1-16-6.5L176,259.86a23,23,0,1,1,32-32.93L234,252.26l60.87-59.63A23,23,0,0,1,327,225.43l-76.87,75.31A22.92,22.92,0,0,1,234.1,307.3Z"/><path class="cls-3" d="M234.1,307.3a22.91,22.91,0,0,1-16-6.5L176,259.86a23,23,0,1,1,32-32.93L234,252.26l60.87-59.63A23,23,0,0,1,327,225.43l-76.87,75.31A22.92,22.92,0,0,1,234.1,307.3Z"/><path class="cls-7" d="M250,489.3C494.9,383.2,450.82,94.45,450.82,94.45,333.87,84.47,250,10.7,250,10.7S166.13,84.47,49.18,94.45C49.18,94.45,5.1,383.2,250,489.3Z"/><path class="cls-7" d="M250,428.93C433.12,349.6,400.16,133.69,400.16,133.69,312.72,126.23,250,71.07,250,71.07s-62.72,55.16-150.16,62.62C99.84,133.69,66.88,349.6,250,428.93Z"/><path class="cls-7" d="M234.1,307.3a22.91,22.91,0,0,1-16-6.5L176,259.86a23,23,0,1,1,32-32.93L234,252.26l60.87-59.63A23,23,0,0,1,327,225.43l-76.87,75.31A22.92,22.92,0,0,1,234.1,307.3Z"/></svg>