<?xml version="1.0" standalone="no"?>
<!DOCTYPE svg PUBLIC "-//W3C//DTD SVG 20010904//EN"
 "http://www.w3.org/TR/2001/REC-SVG-20010904/DTD/svg10.dtd">
<svg version="1.0" xmlns="http://www.w3.org/2000/svg"
 width="1200.000000pt" height="1200.000000pt" viewBox="0 0 1200.000000 1200.000000"
 preserveAspectRatio="xMidYMid meet">

<g transform="translate(0.000000,1200.000000) scale(0.100000,-0.100000)"
fill="#000000" stroke="none">
<path d="M0 6000 l0 -6000 6000 0 6000 0 0 6000 0 6000 -6000 0 -6000 0 0
-6000z m11700 0 l0 -5700 -5700 0 -5700 0 0 5700 0 5700 5700 0 5700 0 0
-5700z"/>
<path d="M480 6000 l0 -5520 5520 0 5520 0 0 5520 0 5520 -5520 0 -5520 0 0
-5520z m10850 0 l0 -5330 -5330 0 -5330 0 0 5330 0 5330 5330 0 5330 0 0
-5330z"/>
<path d="M5625 11171 c-215 -74 -519 -211 -775 -351 -503 -273 -809 -552 -838
-762 l-5 -41 99 75 c289 218 692 452 1094 636 208 96 455 192 490 192 11 0 32
-12 46 -27 24 -26 68 -148 59 -163 -3 -5 -22 -14 -43 -21 -80 -26 -396 -165
-554 -244 -680 -339 -1079 -713 -1204 -1130 -24 -78 -27 -109 -28 -225 -1
-125 1 -140 25 -198 83 -196 249 -366 554 -565 171 -112 275 -171 605 -344
338 -178 402 -215 457 -266 56 -51 57 -82 6 -138 -132 -146 -560 -321 -1013
-416 -166 -34 -368 -38 -447 -9 -179 67 -279 250 -327 601 -8 61 -24 232 -36
380 -111 1465 -200 2264 -295 2647 -25 100 -62 184 -80 182 -26 -2 -105 -204
-135 -344 -60 -274 -49 -543 50 -1265 108 -792 142 -1153 160 -1716 5 -178 12
-385 14 -459 8 -215 54 -366 149 -482 l47 -58 0 -107 c0 -60 7 -164 15 -233
47 -407 189 -621 438 -662 120 -20 374 13 599 78 234 67 589 226 829 371 l117
70 41 -63 c181 -274 453 -266 778 24 l73 64 50 -45 c108 -97 230 -127 358 -88
89 27 197 99 281 186 l64 66 66 -64 c36 -36 76 -70 89 -76 12 -7 22 -16 22
-22 0 -6 -27 -70 -59 -142 -131 -293 -317 -792 -427 -1147 -31 -102 -62 -188
-68 -193 -6 -4 -54 -21 -106 -39 -82 -27 -110 -31 -200 -32 -128 -1 -185 20
-254 94 -81 86 -119 191 -132 362 l-7 86 -116 -39 c-594 -201 -1231 -367
-1626 -425 -141 -21 -435 -24 -535 -5 -123 24 -201 85 -280 221 -88 152 -154
385 -260 925 -107 544 -166 818 -225 1056 -56 224 -171 618 -184 632 -11 11
-86 -156 -116 -259 -38 -130 -55 -243 -55 -359 0 -94 4 -117 50 -271 150 -504
210 -830 210 -1134 0 -139 -1 -148 -29 -205 -145 -306 -711 -763 -1116 -902
-68 -23 -97 -27 -190 -27 -99 -1 -115 2 -160 25 -61 31 -105 86 -131 165 -15
47 -19 86 -18 194 1 183 38 370 129 644 20 59 34 110 32 113 -7 7 -111 -154
-150 -232 -90 -183 -162 -420 -192 -640 -23 -163 -16 -416 14 -530 43 -162
114 -268 218 -322 76 -40 107 -46 230 -44 420 6 889 259 1229 664 122 145 211
288 254 409 l16 47 29 -102 c79 -286 214 -481 400 -579 269 -141 763 -128
1430 38 239 60 827 236 968 290 15 5 17 -2 17 -57 1 -190 92 -344 238 -400 73
-28 186 -28 369 0 72 12 134 21 137 21 3 0 6 -33 6 -72 0 -94 24 -255 51 -338
53 -166 159 -296 293 -360 112 -53 170 -65 320 -65 l128 0 29 34 c15 19 44 64
63 100 141 272 185 655 106 938 -13 46 -14 66 -6 68 55 17 868 216 871 213 2
-1 4 -48 6 -103 2 -93 1 -103 -23 -141 -118 -187 -400 -872 -588 -1433 -81
-239 -62 -222 -235 -224 -131 -2 -186 14 -238 73 -42 45 -62 124 -51 197 l6
48 -38 -36 c-175 -161 -379 -278 -503 -287 -145 -10 -215 61 -255 259 -6 26
-7 26 -145 -66 -242 -161 -402 -228 -542 -229 -77 -1 -90 2 -126 26 -26 17
-49 45 -64 75 -21 43 -24 62 -24 173 l0 125 44 45 c61 62 154 188 187 255 56
117 39 201 -62 302 -43 43 -210 163 -227 163 -19 0 -266 -313 -325 -411 l-22
-37 94 -46 c126 -61 315 -214 304 -246 -6 -20 -240 -188 -370 -265 -141 -84
-269 -143 -397 -182 -71 -22 -107 -26 -206 -27 -120 -1 -121 -1 -197 37 -126
62 -206 176 -253 361 -29 116 -49 342 -42 470 6 97 6 99 -23 141 -67 98 -190
175 -276 175 -149 0 -387 -132 -569 -315 -171 -172 -288 -361 -365 -594 -58
-171 -79 -290 -87 -471 -5 -145 -4 -158 15 -197 47 -92 133 -131 412 -188 128
-26 173 -44 189 -74 14 -25 -2 -38 -124 -99 -360 -179 -899 -341 -1291 -387
-272 -32 -381 -16 -517 75 -298 199 -370 654 -206 1302 53 214 113 396 223
681 l26 68 -31 -18 c-121 -69 -301 -468 -408 -902 -85 -344 -117 -611 -108
-914 8 -281 40 -428 130 -602 114 -220 313 -335 577 -335 329 0 872 153 1315
370 535 262 845 575 896 902 14 89 6 144 -30 200 -67 105 -205 173 -556 272
-247 70 -305 95 -305 135 0 9 22 53 49 96 107 173 233 295 380 368 79 39 90
42 185 45 119 4 174 -10 193 -49 7 -14 20 -120 28 -235 17 -226 35 -351 66
-455 63 -217 195 -354 385 -404 75 -19 234 -19 330 1 183 37 437 151 643 289
56 37 103 66 105 64 1 -2 8 -29 14 -59 26 -120 105 -235 187 -271 133 -59 331
-7 552 144 l82 56 12 -37 c20 -63 65 -118 116 -144 70 -34 196 -31 313 7 96
31 233 94 330 152 l65 38 57 -61 c102 -109 246 -164 436 -167 79 -1 101 -4 98
-14 -41 -106 -54 -426 -22 -543 66 -242 233 -369 511 -386 173 -11 305 35 416
145 182 181 233 502 148 925 -11 54 -21 103 -22 109 -3 15 90 32 403 72 322
40 464 64 606 101 446 116 704 344 799 709 35 133 49 278 42 440 -6 122 -32
343 -42 353 -19 19 -110 -66 -171 -159 -88 -134 -108 -236 -80 -394 9 -49 16
-113 16 -142 0 -46 -4 -54 -32 -79 -141 -119 -672 -267 -1268 -353 -220 -31
-477 -58 -485 -50 -3 3 10 36 29 73 108 215 127 617 51 1107 -13 86 -27 170
-31 185 l-7 29 38 -34 c62 -54 98 -65 210 -65 88 0 113 5 207 37 112 38 227
92 318 151 l55 35 6 -60 c11 -109 68 -155 189 -153 223 3 505 225 648 509 131
262 149 624 47 960 -19 61 -50 150 -71 199 l-37 89 -15 -29 c-84 -159 -192
-446 -192 -510 0 -22 16 -76 36 -124 105 -245 120 -305 92 -365 -23 -50 -200
-139 -300 -151 -115 -13 -167 44 -168 184 l0 72 -72 -53 c-232 -171 -430 -255
-574 -244 -74 5 -152 44 -190 94 -64 84 -104 227 -104 374 0 43 -3 79 -8 79
-4 0 -88 -27 -187 -61 -246 -83 -470 -150 -655 -198 -190 -49 -359 -85 -366
-78 -3 3 6 43 21 88 52 165 68 293 69 534 0 238 -16 374 -69 574 -14 52 -24
95 -23 96 2 1 29 14 60 29 85 40 174 142 237 269 94 191 137 405 128 637 -6
149 -22 240 -67 369 -17 47 -30 98 -30 114 0 41 26 136 61 225 38 95 34 119
-32 238 -65 115 -101 198 -160 364 l-47 135 -30 -65 c-85 -185 -125 -383 -125
-610 0 -242 32 -399 154 -753 79 -232 82 -258 33 -334 -43 -66 -86 -88 -170
-88 -58 0 -78 4 -101 21 -50 38 -90 100 -109 171 l-17 68 -106 -105 c-120
-119 -195 -174 -262 -191 -41 -11 -50 -10 -73 4 -39 26 -57 71 -64 162 l-7 83
-149 -99 c-155 -103 -329 -195 -431 -227 -243 -78 -373 8 -363 238 2 44 3 80
2 80 -1 0 -71 -33 -157 -74 -851 -407 -1472 -585 -1787 -510 -114 27 -148 84
-141 240 l1 31 198 6 c997 29 1617 409 1751 1075 61 304 30 451 -129 607 -145
142 -244 203 -830 509 -343 180 -533 304 -676 440 -70 68 -76 84 -45 144 27
52 158 175 272 254 463 323 1376 746 1994 923 202 58 329 78 458 73 211 -8
229 -55 133 -359 -82 -262 -99 -324 -80 -308 33 27 180 260 230 364 80 166
107 266 107 400 1 133 -20 197 -89 274 -61 67 -135 103 -228 109 -61 4 -99 -2
-242 -37 -261 -64 -712 -201 -875 -266 -14 -5 -15 0 -7 52 5 32 8 108 6 168
-4 124 -18 163 -78 202 -44 31 -66 29 -195 -16z m1909 -5617 c71 -92 106 -237
86 -352 -30 -177 -144 -307 -356 -408 -50 -24 -96 -44 -103 -44 -40 0 35 269
150 538 74 173 154 312 179 312 5 0 25 -21 44 -46z m-219 -1399 c153 -40 304
-192 382 -386 13 -33 22 -63 19 -66 -3 -3 -60 -5 -126 -4 -322 4 -467 97 -509
326 -20 107 -17 111 84 134 59 13 84 13 150 -4z m1310 -556 c61 -120 84 -324
50 -452 -37 -144 -133 -256 -276 -325 -46 -23 -100 -45 -118 -48 l-34 -7 7 46
c19 127 128 442 225 652 46 98 98 185 112 185 5 0 20 -23 34 -51z m-351 -1554
c162 -28 311 -104 396 -203 44 -51 115 -187 126 -241 l6 -34 -98 6 c-217 12
-385 104 -492 269 -36 56 -92 182 -92 208 0 14 54 12 154 -5z"/>
<path d="M8397 11101 c-42 -46 -92 -148 -141 -284 -91 -250 -112 -414 -103
-816 6 -283 20 -439 67 -776 29 -202 47 -311 179 -1085 112 -654 162 -1062
181 -1464 5 -115 12 -211 16 -215 3 -3 19 10 35 29 35 41 96 193 137 340 101
359 91 625 -49 1410 -103 580 -130 742 -136 825 -5 84 -4 96 27 180 78 217 83
240 83 380 -1 160 -17 234 -83 376 -106 229 -139 423 -156 937 -4 111 -10 202
-14 202 -4 0 -24 -18 -43 -39z"/>
<path d="M9588 10671 c-48 -31 -124 -121 -185 -221 -52 -85 -146 -260 -142
-263 2 -1 38 -19 80 -39 118 -56 272 -193 351 -310 12 -18 79 58 163 182 166
247 161 328 -34 520 -53 52 -117 109 -142 127 l-46 32 -45 -28z"/>
<path d="M2247 10282 c-96 -111 -212 -262 -245 -321 l-23 -40 47 -20 c106 -47
224 -151 307 -271 l45 -64 -75 -86 c-87 -98 -219 -271 -251 -328 l-22 -39 75
-37 c95 -47 221 -165 290 -271 l50 -77 44 49 c68 73 159 200 194 268 39 76 42
149 10 215 -34 68 -122 168 -206 234 l-75 58 60 72 c135 160 205 295 194 369
-12 71 -56 139 -150 232 -50 50 -112 105 -138 122 l-46 33 -85 -98z"/>
<path d="M7495 10053 c-62 -83 -195 -245 -268 -328 l-44 -49 71 -35 c55 -27
94 -58 176 -141 58 -58 125 -136 149 -173 24 -37 47 -64 52 -60 48 50 170 202
204 254 123 184 115 270 -39 425 -71 71 -216 184 -236 184 -4 0 -34 -35 -65
-77z"/>
<path d="M9979 10013 c-74 -82 -197 -237 -243 -309 l-39 -61 -25 50 c-31 61
-131 170 -231 249 l-74 59 -69 -68 c-119 -116 -308 -353 -308 -384 0 -5 21
-17 46 -28 113 -50 229 -157 322 -295 l46 -69 58 62 c138 147 238 297 238 359
0 30 16 28 86 -14 96 -57 193 -162 261 -282 l30 -53 68 73 c125 135 205 251
225 326 29 109 -66 248 -274 405 -27 20 -53 37 -57 37 -4 0 -31 -26 -60 -57z"/>
<path d="M6664 9781 c-70 -52 -158 -176 -260 -366 -46 -86 -54 -109 -43 -116
8 -5 19 -9 24 -9 6 0 45 -20 87 -45 83 -48 226 -178 284 -256 l36 -49 53 65
c115 140 203 292 219 376 8 45 -15 117 -57 178 -58 85 -249 251 -289 251 -8 0
-32 -13 -54 -29z"/>
<path d="M7068 9127 c-91 -102 -186 -222 -233 -295 -22 -34 -42 -62 -45 -62
-3 1 -16 24 -29 52 -13 28 -53 81 -88 119 -64 67 -200 179 -219 179 -37 0
-375 -404 -374 -446 0 -5 32 -24 71 -43 89 -43 206 -152 279 -258 29 -43 55
-80 57 -82 6 -8 73 61 155 159 80 96 148 213 148 256 0 33 15 30 89 -13 80
-48 196 -169 251 -263 l42 -72 40 38 c71 69 200 237 229 299 35 74 37 124 5
190 -40 85 -203 251 -302 308 -7 4 -39 -24 -76 -66z"/>
<path d="M9121 9041 c-121 -239 -87 -492 101 -742 162 -216 594 -601 1003
-892 71 -50 144 -107 163 -125 33 -31 34 -35 30 -91 -3 -48 -12 -71 -41 -115
-237 -358 -1301 -934 -1732 -939 -253 -3 -324 193 -250 680 16 101 26 186 22
190 -15 14 -48 -33 -77 -109 -102 -263 -174 -737 -150 -988 21 -226 73 -314
215 -366 76 -27 270 -25 395 6 482 116 1086 490 1530 946 308 316 470 602 473
835 1 84 0 90 -42 175 -38 77 -59 104 -160 205 -66 65 -176 160 -256 219 -77
57 -192 142 -255 189 -63 47 -141 111 -172 141 l-58 56 0 92 0 91 -32 17 c-63
32 -234 153 -328 232 -97 81 -233 217 -307 307 l-41 49 -31 -63z"/>
<path d="M1182 8073 c-4 -10 -7 -81 -6 -158 1 -334 65 -456 344 -658 69 -50
159 -116 201 -148 l77 -58 -40 -108 c-133 -359 -200 -799 -154 -1013 32 -151
95 -231 194 -246 69 -10 234 12 329 45 101 35 176 79 254 150 184 166 309 483
311 791 0 82 -4 106 -27 165 -64 161 -198 312 -467 527 -37 29 -67 58 -67 63
0 6 25 57 55 115 153 286 184 351 184 380 0 28 -3 31 -22 25 -65 -19 -159
-131 -262 -313 -36 -63 -67 -120 -69 -125 -2 -6 -140 93 -308 219 -330 249
-490 364 -508 364 -7 0 -15 -8 -19 -17z m1014 -1358 c174 -173 241 -279 232
-367 -3 -28 -10 -37 -53 -60 -104 -56 -318 -85 -420 -57 -58 16 -99 65 -120
143 -35 131 -2 445 60 565 l16 32 77 -63 c42 -35 136 -121 208 -193z"/>
<path d="M5358 4188 c-35 -40 -82 -95 -105 -123 -43 -53 -137 -195 -131 -198
1 -1 39 -20 82 -42 80 -39 197 -141 257 -224 l25 -34 55 69 c115 143 179 256
179 317 0 50 -23 99 -73 153 -50 56 -186 154 -212 154 -7 0 -42 -33 -77 -72z"/>
<path d="M5118 3686 c-127 -144 -288 -360 -277 -370 2 -2 35 -18 72 -35 89
-40 175 -102 259 -186 l67 -67 31 22 c47 33 156 165 185 223 47 95 25 173 -77
283 -60 64 -197 175 -214 173 -5 0 -26 -20 -46 -43z"/>
<path d="M9940 1688 c-93 -105 -204 -250 -244 -320 l-27 -47 63 -32 c119 -60
212 -147 307 -287 49 -73 43 -75 131 33 180 221 216 329 150 454 -34 64 -161
193 -253 259 l-46 32 -81 -92z"/>
<path d="M6364 1658 c-10 -23 -34 -57 -52 -75 -27 -28 -40 -33 -79 -33 -43 0
-49 4 -99 58 -30 31 -54 60 -54 65 0 4 -7 7 -15 7 -9 0 -23 -27 -38 -76 l-24
-77 38 -62 c81 -128 139 -318 155 -502 3 -46 10 -83 14 -83 5 0 17 24 27 53
24 70 24 284 0 375 -9 35 -17 65 -17 67 0 1 13 5 29 8 17 4 44 19 62 35 l32
29 41 -23 c76 -44 149 -25 185 48 24 51 38 167 23 194 -9 17 -13 14 -30 -26
-25 -58 -41 -72 -80 -64 -47 10 -72 38 -72 84 0 53 -21 52 -46 -2z"/>
<path d="M6972 1647 c-41 -72 -73 -97 -128 -97 -40 0 -46 4 -101 65 -32 36
-63 65 -69 65 -6 0 -21 -35 -33 -77 l-22 -78 49 -81 c78 -130 142 -355 142
-500 0 -66 15 -77 38 -27 23 51 24 331 1 410 l-16 51 31 6 c17 4 45 20 62 37
l32 31 30 -22 c18 -14 51 -25 79 -27 42 -5 53 -1 81 22 21 17 37 44 47 78 16
54 20 162 7 171 -5 3 -19 -17 -31 -43 -25 -57 -37 -63 -84 -50 -45 12 -61 33
-62 77 0 53 -19 49 -53 -11z"/>
<path d="M4859 1573 c-90 -105 -239 -312 -239 -332 0 -4 15 -12 34 -19 102
-37 246 -165 326 -291 25 -38 50 -69 55 -67 32 8 214 257 250 341 41 96 9 197
-97 310 -62 67 -196 175 -216 175 -6 0 -57 -53 -113 -117z"/>
<path d="M5575 1621 l-34 -69 49 -83 c82 -138 128 -287 150 -483 6 -55 13
-102 15 -105 10 -10 23 16 34 67 25 121 6 332 -45 494 -35 109 -106 248 -127
248 -4 0 -22 -31 -42 -69z"/>
<path d="M7507 1673 c-3 -5 -28 -85 -57 -178 -60 -199 -110 -317 -174 -413
-33 -50 -46 -80 -46 -105 0 -47 11 -97 21 -97 16 0 99 127 143 221 25 52 61
146 80 209 19 63 37 108 40 100 2 -8 14 -49 25 -90 37 -143 146 -356 210 -414
18 -17 20 -15 44 58 l25 75 -30 38 c-81 102 -165 279 -223 470 -35 116 -48
143 -58 126z"/>
<path d="M4184 1569 c-121 -139 -277 -354 -263 -362 2 -1 31 -15 63 -30 116
-55 226 -159 313 -294 18 -29 36 -53 39 -53 18 0 197 236 236 313 62 122 40
212 -86 345 -72 76 -190 172 -211 172 -6 0 -47 -41 -91 -91z"/>
</g>
</svg>
